<svg xmlns="http://www.w3.org/2000/svg" viewBox="0 0 88 88"><path fill="#ccd4dd" stroke="#ccd4dd" stroke-linecap="round" stroke-linejoin="round" stroke-width="10" d="M11 28h49l17 17v10H11Z"/><path fill="#fff" stroke="#fff" stroke-linecap="round" stroke-linejoin="round" stroke-width="10" d="M14 28h46l17 17v7H14Z"/><path fill="#464949" d="M16 60h20c0-13.4-20-13.4-20 0Z"/><circle cx="26" cy="60" r="7" fill="#5b5e5e"/><circle cx="26" cy="60" r="3.3" fill="#f0f1f2"/><path fill="#464949" d="M6 53v3.4a3.3 3.3 0 0 0 3.3 3.3v-6.6zM56 57h-3c-2 0-4 1-4 3h30c2 0 3-1.6 3-4v-3h-9c-5-5.5-15-3-17 4Z"/><circle cx="66" cy="60" r="7" fill="#5b5e5e"/><circle cx="66" cy="60" r="3.3" fill="#f0f1f2"/><path fill="#97d1ee" stroke="#97d3ee" stroke-linecap="round" stroke-linejoin="round" stroke-width="5" d="M54 32h9l7 7H54Zm-23 0h16v7H31Z"/><path fill="#ed3a47" d="M6 44v3h66c0-2-1-3-3-3z"/><path fill="#f7a539" d="M78.7 53v-3.2c0-1.8 1.5-3.3 3.3-3.3V53z"/><path fill="#3eaae0" d="M10.7 21.4A1.7 1.7 0 0 0 9 23h3.3a1.7 1.7 0 0 0-1.6-1.6zm43 0c-1 0-1.7.7-1.7 1.6h6.6c0-.9-.8-1.6-1.7-1.6z"/></svg>
