<svg xmlns="http://www.w3.org/2000/svg" viewBox="0 0 88 88"><path fill="#f5b46a" d="M43 34h8c-7 16-7 35-4 44-4 3-12 4-15 1 2-14 6-33 11-45z"/><path fill="#eca350" d="m35 62-1.7 9h12.2l-.4-9zm4.2-17-2.4 9h8.9l1.6-9z"/><path fill="#83c409" d="M78 46c-4-7-19-7-33-19 19-12 35 1 33 19z"/><path fill="#569a0f" d="M78 46c-4-7-19-7-33-19 16-3 28 4 33 19Z"/><path fill="#94c717" d="m68 59-6-9 2-4-4 2-10-8 1-3-3 1c-2-2-4-6.3-4-9.3 21-4 30 9.3 24 30.3Z"/><path fill="#4c9305" d="m68 59-6-9 2-4-4 2-10-8 1-3-3 1c-2-2-3-4.3-3-7.3C63 28.7 70 46 68 59Z"/><path fill="#6bc50f" d="M73 18c-2 0-5-1-8 0l-2-2v2.5c-9 4-7.4 10.1-17.4 10.1C38.6 1.6 68 2 73 18Z"/><path fill="#458902" d="M73 18c-2 0-5-1-8 0l-2-2v2.5c-9 4-7.4 10.1-17.4 10.1C51.6 8.6 63 9 73 18Z"/><path fill="#70cb14" d="M50 28c-3 11-12 13-20 13l-1-5-3 5c-6 0-12 0-15 4 0-18 25-27 39-17z"/><path fill="#488b05" d="M50 28c-3 11-12 13-20 13l-1-5-3 5c-6 0-12 0-15 4 6-14 27-22 39-17z"/><path fill="#8dce0f" d="M50 28c-10 1-18-5-24-10l1-4-3 2c-1-2-6-5-9-6 19-7 35 1 35 18z"/><path fill="#4f9807" d="M15 10c3 1 8 4 9 6l3-2-1 4c6 5 14 11 24 10-8-11-23-19-35-18Z"/></svg>
