<svg xmlns="http://www.w3.org/2000/svg" width="60" height="60" viewBox="0 0 600 600"><path fill="#a0a7db" d="M0 0h600v600H0z"/><path fill="#575f99" d="M258 446h85c152 94 187 69 187 154H70c0-85 40-60 188-154z"/><path fill="#7f6daf" d="M258 446c-40 26-72 43-98 57v47h280v-49c-25-13-57-30-97-55z"/><path fill="#646db2" d="M160 550v50h280v-50z"/><path fill="#f9c5b8" d="M198 255c2 63 24 118 66 139 3 20-1 43-6 52 25 15 60 15 85 0-5-9-9-32-6-51 41-21 63-77 65-140-17-140-192-140-204 0z"/><path fill="#2a2e6d" d="M305 100c-41 0-66 12-70 32-80 33-45 163-31 162 2-39 13-89 24-103 2-2 19-12 26-13 18 13 36 23 72 29l-13-16c17 11 40 11 64 10 8 23 17 64 19 93 23 0 21-76 15-98h4c-9-58-54-96-110-96zm-70 145c-1 2 2 3 4 3 8-3 22-4 31-3 3 0 4-6 3-8-11-3-29 0-38 8zm92-8c-1 2 0 8 3 8 9-1 23 0 31 3 2 0 5-1 4-3-9-8-27-11-38-8zm-67 20c-4 0-8 7-8 15s4 15 8 15 8-7 8-15-4-15-8-15zm80 0c-4 0-8 7-8 15s4 15 8 15 8-7 8-15-4-15-8-15z"/><path fill="#e9837b" d="M295 296c-5 14-25 29 1 37l2-2c-19-8-3-22 0-34zm-23 48-2 2c12 15 42 15 54 0l-2-2c-15 7-35 7-50 0z"/><path fill="#f5a997" d="M186 249c-6 0-12 20-4 38 4 9 5 25 13 25 10 0 12-2 6-27-4-16-7-36-15-36zm228 0c-8 0-11 20-15 36-6 25-4 27 6 27 8 0 9-16 13-25 8-18 2-38-4-38zM264 394c2 13 1 27-1 38 29-4 49-12 73-24l1-13a82 82 0 0 1-73-1z"/><path fill="#e9837b" d="M403 282c13 0 13-3 1-5 0-8 10-11 5-14-6-4-15 37-8 36 5-1-1-11 2-17zm-206 0c-13 0-13-3-1-5 0-8-10-11-5-14 6-4 15 37 8 36-5-1 1-11-2-17z"/><path fill="#f6afa8" d="M255 288a24 11 0 0 0-24 11 24 11 0 0 0 24 11 24 11 0 0 0 24-11 24 11 0 0 0-24-11zm90 0a24 11 0 0 0-24 11 24 11 0 0 0 24 11 24 11 0 0 0 24-11 24 11 0 0 0-24-11z"/></svg>
